<mxfile host="65bd71144e">
    <diagram id="Wm9y0jT2YUXAEHfAmu5r" name="Page-1">
        <mxGraphModel dx="1709" dy="761" grid="1" gridSize="10" guides="1" tooltips="1" connect="1" arrows="1" fold="1" page="1" pageScale="1" pageWidth="827" pageHeight="1169" math="0" shadow="0">
            <root>
                <mxCell id="0"/>
                <mxCell id="1" parent="0"/>
                <mxCell id="title" value="Smart Home Electrical Installation Schema" style="text;html=1;strokeColor=none;fillColor=none;align=center;verticalAlign=middle;whiteSpace=wrap;rounded=0;fontSize=24;fontStyle=1" parent="1" vertex="1">
                    <mxGeometry x="250" y="20" width="670" height="40" as="geometry"/>
                </mxCell>
                <mxCell id="living-room" value="Living Room" style="rounded=1;whiteSpace=wrap;html=1;fillColor=#f5f5f5;strokeColor=#666666;fontColor=#333333;verticalAlign=top;fontStyle=1;fontSize=14;arcSize=3;glass=0;shadow=1;" parent="1" vertex="1">
                    <mxGeometry x="140" y="267.5" width="110" height="160" as="geometry"/>
                </mxCell>
                <mxCell id="living-lights" value="Lights" style="rounded=1;fillColor=#dae8fc;strokeColor=#6c8ebf;fontSize=10;align=left;spacingLeft=30;shadow=1;arcSize=50;html=1;imageAlign=center;" parent="1" vertex="1">
                    <mxGeometry x="160" y="298.5" width="70" height="30" as="geometry"/>
                </mxCell>
                <mxCell id="living-lights-icon" value="" style="shape=image;html=1;verticalAlign=middle;verticalLabelPosition=middle;labelBackgroundColor=#ffffff;imageAspect=0;aspect=fixed;image=https://cdn4.iconfinder.com/data/icons/48-bubbles/48/23.Bulb-128.png;fontSize=10;align=center;" parent="1" vertex="1">
                    <mxGeometry x="471.25" y="126" width="28" height="28" as="geometry"/>
                </mxCell>
                <mxCell id="living-curtains-icon" value="" style="shape=image;html=1;verticalAlign=middle;verticalLabelPosition=middle;labelBackgroundColor=#ffffff;imageAspect=0;aspect=fixed;image=https://cdn3.iconfinder.com/data/icons/hotel-service-3/50/31-128.png;fontSize=10;" parent="1" vertex="1">
                    <mxGeometry x="471.25" y="166" width="28" height="28" as="geometry"/>
                </mxCell>
                <mxCell id="living-entertainment-icon" value="" style="shape=image;html=1;verticalAlign=middle;verticalLabelPosition=middle;labelBackgroundColor=#ffffff;imageAspect=0;aspect=fixed;image=https://cdn2.iconfinder.com/data/icons/whcompare-isometric-web-hosting-servers/50/television-128.png;fontSize=10;" parent="1" vertex="1">
                    <mxGeometry x="471.25" y="206" width="28" height="28" as="geometry"/>
                </mxCell>
                <mxCell id="kitchen" value="Kitchen" style="rounded=1;whiteSpace=wrap;html=1;fillColor=#f5f5f5;strokeColor=#666666;fontColor=#333333;verticalAlign=top;fontStyle=1;fontSize=14;arcSize=3;shadow=1;" parent="1" vertex="1">
                    <mxGeometry x="963.25" y="260" width="104" height="370" as="geometry"/>
                </mxCell>
                <mxCell id="kitchen-lights" value="Ligths" style="rounded=1;whiteSpace=wrap;html=1;fillColor=#dae8fc;strokeColor=#6c8ebf;fontSize=10;align=center;spacingLeft=30;shadow=1;" parent="1" vertex="1">
                    <mxGeometry x="983.25" y="305" width="70" height="30" as="geometry"/>
                </mxCell>
                <mxCell id="kitchen-lights-icon" value="" style="shape=image;html=1;verticalAlign=middle;verticalLabelPosition=middle;labelBackgroundColor=#ffffff;imageAspect=0;aspect=fixed;image=https://cdn4.iconfinder.com/data/icons/48-bubbles/48/23.Bulb-128.png;fontSize=10;align=center;" parent="1" vertex="1">
                    <mxGeometry x="731.25" y="126" width="28" height="28" as="geometry"/>
                </mxCell>
                <mxCell id="kitchen-curtains" value="Curtain" style="rounded=1;whiteSpace=wrap;html=1;fillColor=#dae8fc;strokeColor=#6c8ebf;fontSize=10;align=center;spacingLeft=30;shadow=1;" parent="1" vertex="1">
                    <mxGeometry x="983.25" y="345" width="70" height="30" as="geometry"/>
                </mxCell>
                <mxCell id="kitchen-curtains-icon" value="" style="shape=image;html=1;verticalAlign=middle;verticalLabelPosition=middle;labelBackgroundColor=#ffffff;imageAspect=0;aspect=fixed;image=https://cdn3.iconfinder.com/data/icons/hotel-service-3/50/31-128.png;fontSize=10;" parent="1" vertex="1">
                    <mxGeometry x="731.25" y="166" width="28" height="28" as="geometry"/>
                </mxCell>
                <mxCell id="kitchen-appliances" value="Outlet" style="rounded=1;whiteSpace=wrap;html=1;fillColor=#dae8fc;strokeColor=#6c8ebf;fontSize=10;align=center;spacingLeft=30;shadow=1;" parent="1" vertex="1">
                    <mxGeometry x="983.25" y="380" width="70" height="30" as="geometry"/>
                </mxCell>
                <mxCell id="kitchen-appliances-icon" value="" style="shape=image;html=1;verticalAlign=middle;verticalLabelPosition=middle;labelBackgroundColor=#ffffff;imageAspect=0;aspect=fixed;image=https://cdn3.iconfinder.com/data/icons/kitchen-27/64/refrigerator-appliance-kitchen-fridge-128.png;fontSize=10;" parent="1" vertex="1">
                    <mxGeometry x="731.25" y="206" width="28" height="28" as="geometry"/>
                </mxCell>
                <mxCell id="bedrooms-section" value="Bedrooms" style="rounded=1;whiteSpace=wrap;html=1;fillColor=#f5f5f5;strokeColor=#666666;fontColor=#333333;verticalAlign=top;fontStyle=1;fontSize=14;arcSize=3;shadow=1;" parent="1" vertex="1">
                    <mxGeometry x="322.25" y="70" width="500" height="180" as="geometry"/>
                </mxCell>
                <mxCell id="bedroom1" value="Bedroom 1" style="rounded=1;whiteSpace=wrap;html=1;fillColor=#e1d5e7;strokeColor=#9673a6;fontSize=11;verticalAlign=top;fontStyle=1;arcSize=6;shadow=1;" parent="1" vertex="1">
                    <mxGeometry x="342.25" y="105" width="140" height="125" as="geometry"/>
                </mxCell>
                <mxCell id="bedroom1-lights" value="Lights" style="rounded=1;whiteSpace=wrap;html=1;fillColor=#dae8fc;strokeColor=#6c8ebf;fontSize=10;align=center;spacingLeft=25;shadow=1;" parent="1" vertex="1">
                    <mxGeometry x="352.25" y="135" width="120" height="25" as="geometry"/>
                </mxCell>
                <mxCell id="bedroom1-curtains" value="Curtains" style="rounded=1;whiteSpace=wrap;html=1;fillColor=#dae8fc;strokeColor=#6c8ebf;fontSize=10;align=center;spacingLeft=25;shadow=1;" parent="1" vertex="1">
                    <mxGeometry x="352.25" y="165" width="120" height="25" as="geometry"/>
                </mxCell>
                <mxCell id="office" value="Office" style="rounded=1;whiteSpace=wrap;html=1;fillColor=#f5f5f5;strokeColor=#666666;fontColor=#333333;verticalAlign=top;fontStyle=1;fontSize=14;arcSize=3;shadow=1;" parent="1" vertex="1">
                    <mxGeometry x="142" y="450" width="111.5" height="160" as="geometry"/>
                </mxCell>
                <mxCell id="office-lights" value="Lights" style="rounded=1;whiteSpace=wrap;html=1;fillColor=#dae8fc;strokeColor=#6c8ebf;fontSize=10;align=left;spacingLeft=30;shadow=1;" parent="1" vertex="1">
                    <mxGeometry x="162" y="485" width="61.5" height="30" as="geometry"/>
                </mxCell>
                <mxCell id="office-computer" value="CPU" style="rounded=1;whiteSpace=wrap;html=1;fillColor=#dae8fc;strokeColor=#6c8ebf;fontSize=10;align=center;spacingLeft=30;shadow=1;" parent="1" vertex="1">
                    <mxGeometry x="162" y="525" width="61.5" height="30" as="geometry"/>
                </mxCell>
                <mxCell id="office-music" value="Music" style="rounded=1;whiteSpace=wrap;html=1;fillColor=#dae8fc;strokeColor=#6c8ebf;fontSize=10;align=center;spacingLeft=30;shadow=1;" parent="1" vertex="1">
                    <mxGeometry x="162" y="565" width="61.5" height="30" as="geometry"/>
                </mxCell>
                <mxCell id="techroom" value="Tech Room" style="rounded=1;whiteSpace=wrap;html=1;fillColor=#f5f5f5;strokeColor=#666666;fontColor=#333333;verticalAlign=bottom;fontStyle=1;fontSize=14;arcSize=3;shadow=1;" parent="1" vertex="1">
                    <mxGeometry x="318.75" y="729" width="300" height="80" as="geometry"/>
                </mxCell>
                <mxCell id="tech-heatpump-air" value="AQS" style="rounded=1;whiteSpace=wrap;html=1;fillColor=#dae8fc;strokeColor=#6c8ebf;fontSize=10;align=center;spacingLeft=30;shadow=1;" parent="1" vertex="1">
                    <mxGeometry x="417.25" y="749" width="86" height="30" as="geometry"/>
                </mxCell>
                <mxCell id="tech-heatpump-floor" value="Floor Heat" style="rounded=1;whiteSpace=wrap;html=1;fillColor=#dae8fc;strokeColor=#6c8ebf;fontSize=10;align=center;spacingLeft=30;shadow=1;" parent="1" vertex="1">
                    <mxGeometry x="512.75" y="749" width="86.5" height="30" as="geometry"/>
                </mxCell>
                <mxCell id="184" value="Current" style="rounded=1;fillColor=#dae8fc;strokeColor=#6c8ebf;fontSize=10;align=left;spacingLeft=30;shadow=1;arcSize=50;html=1;imageAlign=center;" vertex="1" parent="1">
                    <mxGeometry x="158.5" y="332.5" width="70" height="30" as="geometry"/>
                </mxCell>
                <mxCell id="185" value="Curtain" style="rounded=1;fillColor=#dae8fc;strokeColor=#6c8ebf;fontSize=10;align=left;spacingLeft=30;shadow=1;arcSize=50;html=1;imageAlign=center;" vertex="1" parent="1">
                    <mxGeometry x="160" y="369.5" width="70" height="30" as="geometry"/>
                </mxCell>
                <mxCell id="191" value="" style="edgeStyle=none;html=1;" edge="1" parent="1" source="188">
                    <mxGeometry relative="1" as="geometry">
                        <mxPoint x="403.5" y="546" as="targetPoint"/>
                    </mxGeometry>
                </mxCell>
                <mxCell id="192" value="Outlets" style="rounded=1;whiteSpace=wrap;html=1;fillColor=#dae8fc;strokeColor=#6c8ebf;fontSize=10;align=center;spacingLeft=25;shadow=1;" vertex="1" parent="1">
                    <mxGeometry x="352.25" y="195" width="120" height="25" as="geometry"/>
                </mxCell>
                <mxCell id="194" value="Bedroom 2" style="rounded=1;whiteSpace=wrap;html=1;fillColor=#e1d5e7;strokeColor=#9673a6;fontSize=11;verticalAlign=top;fontStyle=1;arcSize=6;shadow=1;" vertex="1" parent="1">
                    <mxGeometry x="502.25" y="105" width="140" height="125" as="geometry"/>
                </mxCell>
                <mxCell id="195" value="Lights" style="rounded=1;whiteSpace=wrap;html=1;fillColor=#dae8fc;strokeColor=#6c8ebf;fontSize=10;align=center;spacingLeft=25;shadow=1;" vertex="1" parent="1">
                    <mxGeometry x="512.25" y="135" width="120" height="25" as="geometry"/>
                </mxCell>
                <mxCell id="196" value="Curtains" style="rounded=1;whiteSpace=wrap;html=1;fillColor=#dae8fc;strokeColor=#6c8ebf;fontSize=10;align=center;spacingLeft=25;shadow=1;" vertex="1" parent="1">
                    <mxGeometry x="512.25" y="165" width="120" height="25" as="geometry"/>
                </mxCell>
                <mxCell id="198" value="Bedroom 3" style="rounded=1;whiteSpace=wrap;html=1;fillColor=#e1d5e7;strokeColor=#9673a6;fontSize=11;verticalAlign=top;fontStyle=1;arcSize=6;shadow=1;" vertex="1" parent="1">
                    <mxGeometry x="662.25" y="105" width="140" height="125" as="geometry"/>
                </mxCell>
                <mxCell id="199" value="Lights" style="rounded=1;whiteSpace=wrap;html=1;fillColor=#dae8fc;strokeColor=#6c8ebf;fontSize=10;align=center;spacingLeft=25;shadow=1;" vertex="1" parent="1">
                    <mxGeometry x="672.25" y="135" width="120" height="25" as="geometry"/>
                </mxCell>
                <mxCell id="200" value="Curtains" style="rounded=1;whiteSpace=wrap;html=1;fillColor=#dae8fc;strokeColor=#6c8ebf;fontSize=10;align=center;spacingLeft=25;shadow=1;" vertex="1" parent="1">
                    <mxGeometry x="672.25" y="165" width="120" height="25" as="geometry"/>
                </mxCell>
                <mxCell id="201" value="Outlets" style="rounded=1;whiteSpace=wrap;html=1;fillColor=#dae8fc;strokeColor=#6c8ebf;fontSize=10;align=center;spacingLeft=25;shadow=1;" vertex="1" parent="1">
                    <mxGeometry x="672.25" y="195" width="120" height="25" as="geometry"/>
                </mxCell>
                <mxCell id="202" value="Outlet" style="rounded=1;whiteSpace=wrap;html=1;fillColor=#dae8fc;strokeColor=#6c8ebf;fontSize=10;align=center;spacingLeft=30;shadow=1;" vertex="1" parent="1">
                    <mxGeometry x="324" y="749" width="86.5" height="30" as="geometry"/>
                </mxCell>
                <mxCell id="204" value="Oven" style="rounded=1;whiteSpace=wrap;html=1;fillColor=#dae8fc;strokeColor=#6c8ebf;fontSize=10;align=center;spacingLeft=30;shadow=1;" vertex="1" parent="1">
                    <mxGeometry x="983.25" y="420" width="70" height="30" as="geometry"/>
                </mxCell>
                <mxCell id="205" value="Stove" style="rounded=1;whiteSpace=wrap;html=1;fillColor=#fff2cc;strokeColor=#d6b656;fontSize=10;align=center;spacingLeft=30;shadow=1;" vertex="1" parent="1">
                    <mxGeometry x="983.25" y="580" width="70" height="30" as="geometry"/>
                </mxCell>
                <mxCell id="206" value="Fridge" style="rounded=1;whiteSpace=wrap;html=1;fillColor=#dae8fc;strokeColor=#6c8ebf;fontSize=10;align=center;spacingLeft=30;shadow=1;" vertex="1" parent="1">
                    <mxGeometry x="983.25" y="495" width="70" height="30" as="geometry"/>
                </mxCell>
                <mxCell id="207" value="Micro" style="rounded=1;whiteSpace=wrap;html=1;fillColor=#dae8fc;strokeColor=#6c8ebf;fontSize=10;align=center;spacingLeft=30;shadow=1;" vertex="1" parent="1">
                    <mxGeometry x="983.25" y="535" width="70" height="30" as="geometry"/>
                </mxCell>
                <mxCell id="208" value="Wash M" style="rounded=1;whiteSpace=wrap;html=1;fillColor=#dae8fc;strokeColor=#6c8ebf;fontSize=10;align=center;spacingLeft=30;shadow=1;" vertex="1" parent="1">
                    <mxGeometry x="983.25" y="455" width="70" height="30" as="geometry"/>
                </mxCell>
                <mxCell id="209" value="Car Charger" style="rounded=1;whiteSpace=wrap;html=1;fillColor=#f5f5f5;strokeColor=#666666;fontColor=#333333;verticalAlign=bottom;fontStyle=1;fontSize=14;arcSize=3;shadow=1;" vertex="1" parent="1">
                    <mxGeometry x="750.25" y="724" width="173" height="80" as="geometry"/>
                </mxCell>
                <mxCell id="210" value="Charger" style="rounded=1;whiteSpace=wrap;html=1;fillColor=#f8cecc;strokeColor=#b85450;fontSize=10;align=left;spacingLeft=30;shadow=1;" vertex="1" parent="1">
                    <mxGeometry x="759.25" y="740" width="73" height="30" as="geometry"/>
                </mxCell>
                <mxCell id="213" value="Charger" style="rounded=1;whiteSpace=wrap;html=1;fillColor=#f8cecc;strokeColor=#b85450;fontSize=10;align=left;spacingLeft=30;shadow=1;" vertex="1" parent="1">
                    <mxGeometry x="843.25" y="740" width="73" height="30" as="geometry"/>
                </mxCell>
                <mxCell id="216" value="Shelly Pro 4PM #1" style="rounded=1;whiteSpace=wrap;html=1;fillColor=#fff2cc;strokeColor=#d6b656;fontSize=10;shadow=1;glass=0;verticalAlign=top;" vertex="1" parent="1">
                    <mxGeometry x="328.25" y="268.25" width="71" height="161.75" as="geometry"/>
                </mxCell>
                <mxCell id="217" value="CH1" style="rounded=0;whiteSpace=wrap;html=1;fillColor=#ffe6cc;strokeColor=#d79b00;fontSize=10;" vertex="1" parent="1">
                    <mxGeometry x="343.25" y="298.5" width="31" height="25" as="geometry"/>
                </mxCell>
                <mxCell id="218" value="CH2" style="rounded=0;whiteSpace=wrap;html=1;fillColor=#ffe6cc;strokeColor=#d79b00;fontSize=10;" vertex="1" parent="1">
                    <mxGeometry x="343.25" y="335" width="31" height="25" as="geometry"/>
                </mxCell>
                <mxCell id="219" value="CH3" style="rounded=0;whiteSpace=wrap;html=1;fillColor=#ffe6cc;strokeColor=#d79b00;fontSize=10;" vertex="1" parent="1">
                    <mxGeometry x="343.25" y="366.5" width="31" height="25" as="geometry"/>
                </mxCell>
                <mxCell id="220" value="CH4" style="rounded=0;whiteSpace=wrap;html=1;fillColor=#ffe6cc;strokeColor=#d79b00;fontSize=10;" vertex="1" parent="1">
                    <mxGeometry x="343.25" y="397.5" width="31" height="25" as="geometry"/>
                </mxCell>
                <mxCell id="226" value="Shelly Pro 4PM #1" style="rounded=1;whiteSpace=wrap;html=1;fillColor=#fff2cc;strokeColor=#d6b656;fontSize=10;shadow=1;glass=0;verticalAlign=bottom;" vertex="1" parent="1">
                    <mxGeometry x="647.25" y="268.5" width="173" height="60" as="geometry"/>
                </mxCell>
                <mxCell id="227" value="CH1" style="rounded=0;whiteSpace=wrap;html=1;fillColor=#ffe6cc;strokeColor=#d79b00;fontSize=10;" vertex="1" parent="1">
                    <mxGeometry x="657.25" y="280" width="31" height="25" as="geometry"/>
                </mxCell>
                <mxCell id="228" value="CH2" style="rounded=0;whiteSpace=wrap;html=1;fillColor=#ffe6cc;strokeColor=#d79b00;fontSize=10;" vertex="1" parent="1">
                    <mxGeometry x="696.25" y="280" width="31" height="25" as="geometry"/>
                </mxCell>
                <mxCell id="230" value="CH4" style="rounded=0;whiteSpace=wrap;html=1;fillColor=#ffe6cc;strokeColor=#d79b00;fontSize=10;" vertex="1" parent="1">
                    <mxGeometry x="783.25" y="280" width="31" height="25" as="geometry"/>
                </mxCell>
                <mxCell id="231" value="Shelly Pro 4PM #1" style="rounded=1;whiteSpace=wrap;html=1;fillColor=#fff2cc;strokeColor=#d6b656;fontSize=10;shadow=1;glass=0;verticalAlign=bottom;" vertex="1" parent="1">
                    <mxGeometry x="409.25" y="272.5" width="173" height="60" as="geometry"/>
                </mxCell>
                <mxCell id="232" value="CH1" style="rounded=0;whiteSpace=wrap;html=1;fillColor=#ffe6cc;strokeColor=#d79b00;fontSize=10;" vertex="1" parent="1">
                    <mxGeometry x="419.25" y="284" width="31" height="25" as="geometry"/>
                </mxCell>
                <mxCell id="233" value="CH2" style="rounded=0;whiteSpace=wrap;html=1;fillColor=#ffe6cc;strokeColor=#d79b00;fontSize=10;" vertex="1" parent="1">
                    <mxGeometry x="458.25" y="284" width="31" height="25" as="geometry"/>
                </mxCell>
                <mxCell id="234" value="CH3" style="rounded=0;whiteSpace=wrap;html=1;fillColor=#ffe6cc;strokeColor=#d79b00;fontSize=10;" vertex="1" parent="1">
                    <mxGeometry x="501.75" y="284" width="31" height="25" as="geometry"/>
                </mxCell>
                <mxCell id="235" value="CH4" style="rounded=0;whiteSpace=wrap;html=1;fillColor=#ffe6cc;strokeColor=#d79b00;fontSize=10;" vertex="1" parent="1">
                    <mxGeometry x="545.25" y="284" width="31" height="25" as="geometry"/>
                </mxCell>
                <mxCell id="258" value="Shelly Pro 3PM" style="rounded=1;whiteSpace=wrap;html=1;fillColor=#fff2cc;strokeColor=#d6b656;verticalAlign=top;" vertex="1" parent="1">
                    <mxGeometry x="461.5" y="620" width="170.5" height="60" as="geometry"/>
                </mxCell>
                <mxCell id="259" value="CH1" style="rounded=0;whiteSpace=wrap;html=1;fillColor=#ffe6cc;strokeColor=#d79b00;fontSize=10;" vertex="1" parent="1">
                    <mxGeometry x="494.5" y="650" width="31" height="25" as="geometry"/>
                </mxCell>
                <mxCell id="260" value="CH2" style="rounded=0;whiteSpace=wrap;html=1;fillColor=#ffe6cc;strokeColor=#d79b00;fontSize=10;" vertex="1" parent="1">
                    <mxGeometry x="533.5" y="650" width="31" height="25" as="geometry"/>
                </mxCell>
                <mxCell id="261" value="CH3" style="rounded=0;whiteSpace=wrap;html=1;fillColor=#ffe6cc;strokeColor=#d79b00;fontSize=10;" vertex="1" parent="1">
                    <mxGeometry x="577" y="650" width="31" height="25" as="geometry"/>
                </mxCell>
                <mxCell id="262" value="Shelly Pro 3PM" style="rounded=1;whiteSpace=wrap;html=1;fillColor=#fff2cc;strokeColor=#d6b656;verticalAlign=top;" vertex="1" parent="1">
                    <mxGeometry x="664.25" y="620" width="170.5" height="60" as="geometry"/>
                </mxCell>
                <mxCell id="263" value="CH1" style="rounded=0;whiteSpace=wrap;html=1;fillColor=#ffe6cc;strokeColor=#d79b00;fontSize=10;" vertex="1" parent="1">
                    <mxGeometry x="697.75" y="650" width="31" height="25" as="geometry"/>
                </mxCell>
                <mxCell id="264" value="CH2" style="rounded=0;whiteSpace=wrap;html=1;fillColor=#ffe6cc;strokeColor=#d79b00;fontSize=10;" vertex="1" parent="1">
                    <mxGeometry x="736.75" y="650" width="31" height="25" as="geometry"/>
                </mxCell>
                <mxCell id="265" value="CH3" style="rounded=0;whiteSpace=wrap;html=1;fillColor=#ffe6cc;strokeColor=#d79b00;fontSize=10;" vertex="1" parent="1">
                    <mxGeometry x="780.25" y="650" width="31" height="25" as="geometry"/>
                </mxCell>
                <mxCell id="266" value="Shelly Pro 4PM #1" style="rounded=1;whiteSpace=wrap;html=1;fillColor=#fff2cc;strokeColor=#d6b656;fontSize=10;shadow=1;glass=0;verticalAlign=top;" vertex="1" parent="1">
                    <mxGeometry x="326.25" y="444.25" width="71" height="161.75" as="geometry"/>
                </mxCell>
                <mxCell id="267" value="CH1" style="rounded=0;whiteSpace=wrap;html=1;fillColor=#ffe6cc;strokeColor=#d79b00;fontSize=10;" vertex="1" parent="1">
                    <mxGeometry x="341.25" y="474.5" width="31" height="25" as="geometry"/>
                </mxCell>
                <mxCell id="268" value="CH2" style="rounded=0;whiteSpace=wrap;html=1;fillColor=#ffe6cc;strokeColor=#d79b00;fontSize=10;" vertex="1" parent="1">
                    <mxGeometry x="341.25" y="511" width="31" height="25" as="geometry"/>
                </mxCell>
                <mxCell id="269" value="CH3" style="rounded=0;whiteSpace=wrap;html=1;fillColor=#ffe6cc;strokeColor=#d79b00;fontSize=10;" vertex="1" parent="1">
                    <mxGeometry x="341.25" y="542.5" width="31" height="25" as="geometry"/>
                </mxCell>
                <mxCell id="270" value="CH4" style="rounded=0;whiteSpace=wrap;html=1;fillColor=#ffe6cc;strokeColor=#d79b00;fontSize=10;" vertex="1" parent="1">
                    <mxGeometry x="341.25" y="573.5" width="31" height="25" as="geometry"/>
                </mxCell>
                <mxCell id="271" value="Shelly Pro 4PM #1" style="rounded=1;whiteSpace=wrap;html=1;fillColor=#fff2cc;strokeColor=#d6b656;fontSize=10;shadow=1;glass=0;verticalAlign=top;" vertex="1" parent="1">
                    <mxGeometry x="839.25" y="268.5" width="71" height="161.75" as="geometry"/>
                </mxCell>
                <mxCell id="272" value="CH1" style="rounded=0;whiteSpace=wrap;html=1;fillColor=#ffe6cc;strokeColor=#d79b00;fontSize=10;" vertex="1" parent="1">
                    <mxGeometry x="854.25" y="298.75" width="31" height="25" as="geometry"/>
                </mxCell>
                <mxCell id="273" value="CH2" style="rounded=0;whiteSpace=wrap;html=1;fillColor=#ffe6cc;strokeColor=#d79b00;fontSize=10;" vertex="1" parent="1">
                    <mxGeometry x="854.25" y="335.25" width="31" height="25" as="geometry"/>
                </mxCell>
                <mxCell id="274" value="CH3" style="rounded=0;whiteSpace=wrap;html=1;fillColor=#ffe6cc;strokeColor=#d79b00;fontSize=10;" vertex="1" parent="1">
                    <mxGeometry x="854.25" y="366.75" width="31" height="25" as="geometry"/>
                </mxCell>
                <mxCell id="275" value="CH4" style="rounded=0;whiteSpace=wrap;html=1;fillColor=#ffe6cc;strokeColor=#d79b00;fontSize=10;" vertex="1" parent="1">
                    <mxGeometry x="854.25" y="397.75" width="31" height="25" as="geometry"/>
                </mxCell>
                <mxCell id="276" value="Shelly Pro 4PM #1" style="rounded=1;whiteSpace=wrap;html=1;fillColor=#fff2cc;strokeColor=#d6b656;fontSize=10;shadow=1;glass=0;verticalAlign=top;" vertex="1" parent="1">
                    <mxGeometry x="841.25" y="439.25" width="71" height="161.75" as="geometry"/>
                </mxCell>
                <mxCell id="277" value="CH1" style="rounded=0;whiteSpace=wrap;html=1;fillColor=#ffe6cc;strokeColor=#d79b00;fontSize=10;" vertex="1" parent="1">
                    <mxGeometry x="856.25" y="469.5" width="31" height="25" as="geometry"/>
                </mxCell>
                <mxCell id="278" value="CH2" style="rounded=0;whiteSpace=wrap;html=1;fillColor=#ffe6cc;strokeColor=#d79b00;fontSize=10;" vertex="1" parent="1">
                    <mxGeometry x="856.25" y="506" width="31" height="25" as="geometry"/>
                </mxCell>
                <mxCell id="279" value="CH3" style="rounded=0;whiteSpace=wrap;html=1;fillColor=#ffe6cc;strokeColor=#d79b00;fontSize=10;" vertex="1" parent="1">
                    <mxGeometry x="856.25" y="537.5" width="31" height="25" as="geometry"/>
                </mxCell>
                <mxCell id="280" value="CH4" style="rounded=0;whiteSpace=wrap;html=1;fillColor=#ffe6cc;strokeColor=#d79b00;fontSize=10;" vertex="1" parent="1">
                    <mxGeometry x="856.25" y="568.5" width="31" height="25" as="geometry"/>
                </mxCell>
                <mxCell id="290" value="" style="edgeStyle=none;html=1;entryX=0.5;entryY=1;entryDx=0;entryDy=0;exitX=0.5;exitY=0;exitDx=0;exitDy=0;" edge="1" parent="1" source="213" target="264">
                    <mxGeometry relative="1" as="geometry">
                        <mxPoint x="879.75" y="675" as="targetPoint"/>
                    </mxGeometry>
                </mxCell>
                <mxCell id="293" value="" style="edgeStyle=none;html=1;entryX=0.5;entryY=1;entryDx=0;entryDy=0;exitX=0.5;exitY=0;exitDx=0;exitDy=0;" edge="1" parent="1" source="tech-heatpump-air" target="260">
                    <mxGeometry relative="1" as="geometry">
                        <mxPoint x="549.25" y="675" as="targetPoint"/>
                    </mxGeometry>
                </mxCell>
                <mxCell id="292" value="" style="edgeStyle=none;html=1;entryX=0.5;entryY=1;entryDx=0;entryDy=0;exitX=0.5;exitY=0;exitDx=0;exitDy=0;" edge="1" parent="1" source="tech-heatpump-floor" target="261">
                    <mxGeometry relative="1" as="geometry"/>
                </mxCell>
                <mxCell id="294" value="" style="edgeStyle=none;html=1;entryX=0.5;entryY=1;entryDx=0;entryDy=0;exitX=0.5;exitY=0;exitDx=0;exitDy=0;" edge="1" parent="1" source="202" target="270">
                    <mxGeometry relative="1" as="geometry">
                        <mxPoint x="366.25" y="749" as="sourcePoint"/>
                        <mxPoint x="440.25" y="675" as="targetPoint"/>
                    </mxGeometry>
                </mxCell>
                <mxCell id="300" value="" style="edgeStyle=none;html=1;" edge="1" parent="1" source="living-lights" target="218">
                    <mxGeometry relative="1" as="geometry"/>
                </mxCell>
                <mxCell id="281" value="" style="edgeStyle=none;html=1;exitX=0;exitY=0.5;exitDx=0;exitDy=0;entryX=1;entryY=0.5;entryDx=0;entryDy=0;" edge="1" parent="1" source="kitchen-lights" target="272">
                    <mxGeometry relative="1" as="geometry">
                        <mxPoint x="979.25" y="320" as="sourcePoint"/>
                        <mxPoint x="889.25" y="311" as="targetPoint"/>
                    </mxGeometry>
                </mxCell>
                <mxCell id="282" value="" style="edgeStyle=none;html=1;entryX=1;entryY=0.5;entryDx=0;entryDy=0;exitX=0;exitY=0.5;exitDx=0;exitDy=0;" edge="1" parent="1" source="kitchen-curtains" target="273">
                    <mxGeometry relative="1" as="geometry"/>
                </mxCell>
                <mxCell id="283" value="" style="edgeStyle=none;html=1;entryX=1;entryY=0.5;entryDx=0;entryDy=0;exitX=0;exitY=0.5;exitDx=0;exitDy=0;" edge="1" parent="1" source="kitchen-appliances" target="274">
                    <mxGeometry relative="1" as="geometry"/>
                </mxCell>
                <mxCell id="301" value="" style="edgeStyle=none;html=1;entryX=0.5;entryY=0;entryDx=0;entryDy=0;" edge="1" parent="1" source="bedroom1-lights" target="233">
                    <mxGeometry relative="1" as="geometry"/>
                </mxCell>
                <mxCell id="302" value="" style="edgeStyle=none;html=1;entryX=0.5;entryY=0;entryDx=0;entryDy=0;" edge="1" parent="1" source="bedroom1-curtains" target="232">
                    <mxGeometry relative="1" as="geometry"/>
                </mxCell>
                <mxCell id="297" value="" style="edgeStyle=none;html=1;entryX=0;entryY=0.5;entryDx=0;entryDy=0;" edge="1" parent="1" source="office-lights" target="267">
                    <mxGeometry relative="1" as="geometry"/>
                </mxCell>
                <mxCell id="296" value="" style="edgeStyle=none;html=1;entryX=0.012;entryY=0.624;entryDx=0;entryDy=0;entryPerimeter=0;" edge="1" parent="1" source="office-computer" target="268">
                    <mxGeometry relative="1" as="geometry"/>
                </mxCell>
                <mxCell id="295" value="" style="edgeStyle=none;html=1;entryX=0;entryY=0.5;entryDx=0;entryDy=0;" edge="1" parent="1" source="office-music" target="269">
                    <mxGeometry relative="1" as="geometry"/>
                </mxCell>
                <mxCell id="299" value="" style="edgeStyle=none;html=1;" edge="1" parent="1" source="184" target="219">
                    <mxGeometry relative="1" as="geometry"/>
                </mxCell>
                <mxCell id="298" value="" style="edgeStyle=none;html=1;" edge="1" parent="1" source="185" target="220">
                    <mxGeometry relative="1" as="geometry"/>
                </mxCell>
                <mxCell id="303" value="" style="edgeStyle=none;html=1;entryX=0.5;entryY=0;entryDx=0;entryDy=0;" edge="1" parent="1" source="192" target="217">
                    <mxGeometry relative="1" as="geometry"/>
                </mxCell>
                <mxCell id="304" value="" style="edgeStyle=none;html=1;entryX=0.5;entryY=0;entryDx=0;entryDy=0;" edge="1" parent="1" source="195" target="234">
                    <mxGeometry relative="1" as="geometry"/>
                </mxCell>
                <mxCell id="305" value="" style="edgeStyle=none;html=1;" edge="1" parent="1" source="196" target="235">
                    <mxGeometry relative="1" as="geometry"/>
                </mxCell>
                <mxCell id="307" value="" style="edgeStyle=none;html=1;entryX=0.5;entryY=0;entryDx=0;entryDy=0;" edge="1" parent="1" source="200" target="228">
                    <mxGeometry relative="1" as="geometry"/>
                </mxCell>
                <mxCell id="308" value="" style="edgeStyle=none;html=1;entryX=0.5;entryY=0;entryDx=0;entryDy=0;" edge="1" parent="1" source="201" target="229">
                    <mxGeometry relative="1" as="geometry"/>
                </mxCell>
                <mxCell id="284" value="" style="edgeStyle=none;html=1;exitX=0;exitY=0.5;exitDx=0;exitDy=0;entryX=1;entryY=0.5;entryDx=0;entryDy=0;" edge="1" parent="1" source="204" target="275">
                    <mxGeometry relative="1" as="geometry"/>
                </mxCell>
                <mxCell id="286" value="" style="edgeStyle=none;html=1;exitX=0;exitY=0.5;exitDx=0;exitDy=0;entryX=1;entryY=0.5;entryDx=0;entryDy=0;" edge="1" parent="1" source="206" target="278">
                    <mxGeometry relative="1" as="geometry"/>
                </mxCell>
                <mxCell id="287" value="" style="edgeStyle=none;html=1;exitX=0;exitY=0.5;exitDx=0;exitDy=0;entryX=1;entryY=0.5;entryDx=0;entryDy=0;" edge="1" parent="1" source="207" target="279">
                    <mxGeometry relative="1" as="geometry">
                        <mxPoint x="889.25" y="580" as="targetPoint"/>
                    </mxGeometry>
                </mxCell>
                <mxCell id="285" value="" style="edgeStyle=none;html=1;entryX=1;entryY=0.5;entryDx=0;entryDy=0;exitX=0;exitY=0.5;exitDx=0;exitDy=0;" edge="1" parent="1" source="208" target="277">
                    <mxGeometry relative="1" as="geometry"/>
                </mxCell>
                <mxCell id="291" value="" style="edgeStyle=none;html=1;entryX=0.5;entryY=1;entryDx=0;entryDy=0;exitX=0.5;exitY=0;exitDx=0;exitDy=0;" edge="1" parent="1" source="210" target="263">
                    <mxGeometry relative="1" as="geometry"/>
                </mxCell>
                <mxCell id="229" value="CH3" style="rounded=0;whiteSpace=wrap;html=1;fillColor=#ffe6cc;strokeColor=#d79b00;fontSize=10;" vertex="1" parent="1">
                    <mxGeometry x="739.75" y="280" width="31" height="25" as="geometry"/>
                </mxCell>
                <mxCell id="288" value="" style="edgeStyle=none;html=1;entryX=1;entryY=0.5;entryDx=0;entryDy=0;exitX=0;exitY=0.5;exitDx=0;exitDy=0;" edge="1" parent="1" source="205" target="265">
                    <mxGeometry relative="1" as="geometry"/>
                </mxCell>
                <mxCell id="306" value="" style="edgeStyle=none;html=1;entryX=0.5;entryY=0;entryDx=0;entryDy=0;" edge="1" parent="1" source="199" target="227">
                    <mxGeometry relative="1" as="geometry"/>
                </mxCell>
                <mxCell id="309" value="Physical Device" style="rounded=1;whiteSpace=wrap;html=1;verticalAlign=top;" vertex="1" parent="1">
                    <mxGeometry x="1330" y="87.5" width="170" height="352.5" as="geometry"/>
                </mxCell>
                <mxCell id="315" value="Model" style="rounded=1;whiteSpace=wrap;html=1;fillColor=#dae8fc;strokeColor=#6c8ebf;" vertex="1" parent="1">
                    <mxGeometry x="1370" y="190" width="100" height="27.5" as="geometry"/>
                </mxCell>
                <mxCell id="316" value="IP" style="rounded=1;whiteSpace=wrap;html=1;fillColor=#dae8fc;strokeColor=#6c8ebf;" vertex="1" parent="1">
                    <mxGeometry x="1370" y="230" width="100" height="30" as="geometry"/>
                </mxCell>
                <mxCell id="318" value="ID" style="rounded=1;whiteSpace=wrap;html=1;fillColor=#dae8fc;strokeColor=#6c8ebf;" vertex="1" parent="1">
                    <mxGeometry x="1370" y="120" width="100" height="27.5" as="geometry"/>
                </mxCell>
                <mxCell id="319" value="Name" style="rounded=1;whiteSpace=wrap;html=1;fillColor=#dae8fc;strokeColor=#6c8ebf;" vertex="1" parent="1">
                    <mxGeometry x="1370" y="153.75" width="100" height="27.5" as="geometry"/>
                </mxCell>
                <mxCell id="320" value="Location" style="rounded=1;whiteSpace=wrap;html=1;fillColor=#dae8fc;strokeColor=#6c8ebf;" vertex="1" parent="1">
                    <mxGeometry x="1370" y="268.75" width="100" height="30" as="geometry"/>
                </mxCell>
                <mxCell id="321" value="Active" style="rounded=1;whiteSpace=wrap;html=1;fillColor=#dae8fc;strokeColor=#6c8ebf;" vertex="1" parent="1">
                    <mxGeometry x="1370" y="305" width="100" height="30" as="geometry"/>
                </mxCell>
                <mxCell id="342" value="" style="edgeStyle=none;html=1;exitX=1;exitY=0.5;exitDx=0;exitDy=0;" edge="1" parent="1" source="322" target="323">
                    <mxGeometry relative="1" as="geometry"/>
                </mxCell>
                <mxCell id="322" value="Channels" style="rounded=1;whiteSpace=wrap;html=1;fillColor=#dae8fc;strokeColor=#6c8ebf;" vertex="1" parent="1">
                    <mxGeometry x="1370" y="345" width="100" height="30" as="geometry"/>
                </mxCell>
                <mxCell id="323" value="Device Model" style="rounded=1;whiteSpace=wrap;html=1;verticalAlign=top;" vertex="1" parent="1">
                    <mxGeometry x="1560" y="87.5" width="170" height="342.5" as="geometry"/>
                </mxCell>
                <mxCell id="324" value="Type" style="rounded=1;whiteSpace=wrap;html=1;fillColor=#dae8fc;strokeColor=#6c8ebf;" vertex="1" parent="1">
                    <mxGeometry x="1600" y="190" width="100" height="27.5" as="geometry"/>
                </mxCell>
                <mxCell id="325" value="Active" style="rounded=1;whiteSpace=wrap;html=1;fillColor=#dae8fc;strokeColor=#6c8ebf;" vertex="1" parent="1">
                    <mxGeometry x="1600" y="230" width="100" height="30" as="geometry"/>
                </mxCell>
                <mxCell id="326" value="ID" style="rounded=1;whiteSpace=wrap;html=1;fillColor=#dae8fc;strokeColor=#6c8ebf;" vertex="1" parent="1">
                    <mxGeometry x="1600" y="120" width="100" height="27.5" as="geometry"/>
                </mxCell>
                <mxCell id="327" value="Name" style="rounded=1;whiteSpace=wrap;html=1;fillColor=#dae8fc;strokeColor=#6c8ebf;" vertex="1" parent="1">
                    <mxGeometry x="1600" y="153.75" width="100" height="27.5" as="geometry"/>
                </mxCell>
                <mxCell id="328" value="Room Id" style="rounded=1;whiteSpace=wrap;html=1;fillColor=#dae8fc;strokeColor=#6c8ebf;" vertex="1" parent="1">
                    <mxGeometry x="1600" y="268.75" width="100" height="30" as="geometry"/>
                </mxCell>
                <mxCell id="331" value="Room" style="rounded=1;whiteSpace=wrap;html=1;verticalAlign=top;" vertex="1" parent="1">
                    <mxGeometry x="1760" y="82" width="170" height="348" as="geometry"/>
                </mxCell>
                <mxCell id="334" value="ID" style="rounded=1;whiteSpace=wrap;html=1;fillColor=#dae8fc;strokeColor=#6c8ebf;" vertex="1" parent="1">
                    <mxGeometry x="1800" y="114.5" width="100" height="27.5" as="geometry"/>
                </mxCell>
                <mxCell id="335" value="Name" style="rounded=1;whiteSpace=wrap;html=1;fillColor=#dae8fc;strokeColor=#6c8ebf;" vertex="1" parent="1">
                    <mxGeometry x="1800" y="148.25" width="100" height="27.5" as="geometry"/>
                </mxCell>
                <mxCell id="339" value="Physical Device Id" style="rounded=1;whiteSpace=wrap;html=1;fillColor=#dae8fc;strokeColor=#6c8ebf;" vertex="1" parent="1">
                    <mxGeometry x="1590" y="307.75" width="110" height="27.5" as="geometry"/>
                </mxCell>
                <mxCell id="340" value="Channel" style="rounded=1;whiteSpace=wrap;html=1;fillColor=#dae8fc;strokeColor=#6c8ebf;" vertex="1" parent="1">
                    <mxGeometry x="1590" y="345" width="110" height="27.5" as="geometry"/>
                </mxCell>
                <mxCell id="341" value="Topic" style="rounded=1;whiteSpace=wrap;html=1;fillColor=#dae8fc;strokeColor=#6c8ebf;" vertex="1" parent="1">
                    <mxGeometry x="1370" y="384" width="100" height="30" as="geometry"/>
                </mxCell>
            </root>
        </mxGraphModel>
    </diagram>
</mxfile>